<svg width="313" height="286" viewBox="0 0 313 286" fill="none" xmlns="http://www.w3.org/2000/svg">
<rect x="26" width="286.212" height="285.159" rx="20" fill="#121E3D"/>
<g filter="url(#filter0_bd_4_6499)">
<mask id="path-2-inside-1_4_6499" fill="white">
<path fill-rule="evenodd" clip-rule="evenodd" d="M151.194 152.972C151.263 152.973 151.331 152.973 151.4 152.973C161.179 152.973 169.106 145.094 169.106 135.374C169.106 125.655 161.179 117.775 151.4 117.775C151.331 117.775 151.263 117.776 151.194 117.777V117.775H146.62C146.785 116.571 146.871 115.341 146.871 114.092C146.871 99.1734 134.703 87.0796 119.694 87.0796C104.685 87.0796 92.5177 99.1734 92.5177 114.092C92.5177 115.5 92.6261 116.882 92.8349 118.232C91.5424 117.933 90.1957 117.775 88.8118 117.775C79.0332 117.775 71.106 125.655 71.106 135.374C71.106 145.094 79.0332 152.973 88.8118 152.973C88.8809 152.973 88.9498 152.973 89.0186 152.972L89.0177 152.973H151.194V152.972Z"/>
</mask>
<path fill-rule="evenodd" clip-rule="evenodd" d="M151.194 152.972C151.263 152.973 151.331 152.973 151.4 152.973C161.179 152.973 169.106 145.094 169.106 135.374C169.106 125.655 161.179 117.775 151.4 117.775C151.331 117.775 151.263 117.776 151.194 117.777V117.775H146.62C146.785 116.571 146.871 115.341 146.871 114.092C146.871 99.1734 134.703 87.0796 119.694 87.0796C104.685 87.0796 92.5177 99.1734 92.5177 114.092C92.5177 115.5 92.6261 116.882 92.8349 118.232C91.5424 117.933 90.1957 117.775 88.8118 117.775C79.0332 117.775 71.106 125.655 71.106 135.374C71.106 145.094 79.0332 152.973 88.8118 152.973C88.8809 152.973 88.9498 152.973 89.0186 152.972L89.0177 152.973H151.194V152.972Z" fill="url(#paint0_linear_4_6499)" shape-rendering="crispEdges"/>
<path d="M151.194 152.972L151.217 150.972C150.683 150.966 150.168 151.174 149.788 151.55C149.408 151.926 149.194 152.438 149.194 152.972H151.194ZM151.194 117.777H149.194C149.194 118.311 149.408 118.823 149.788 119.199C150.168 119.574 150.682 119.782 151.217 119.776L151.194 117.777ZM151.194 117.775H153.194C153.194 116.671 152.299 115.775 151.194 115.775V117.775ZM146.62 117.775L144.639 117.504C144.56 118.076 144.733 118.655 145.113 119.09C145.493 119.525 146.042 119.775 146.62 119.775V117.775ZM92.8349 118.232L92.3848 120.18C93.0315 120.33 93.71 120.149 94.1962 119.697C94.6824 119.245 94.9128 118.582 94.8114 117.926L92.8349 118.232ZM89.0186 152.972L90.585 154.216C91.0648 153.611 91.1541 152.785 90.8146 152.092C90.4751 151.399 89.7673 150.963 88.9958 150.972L89.0186 152.972ZM89.0177 152.973L87.4512 151.73C86.9741 152.331 86.883 153.152 87.2167 153.843C87.5505 154.534 88.2502 154.973 89.0177 154.973V152.973ZM151.194 152.973V154.973C152.299 154.973 153.194 154.078 153.194 152.973H151.194ZM151.171 154.972C151.248 154.973 151.324 154.973 151.4 154.973V150.973C151.339 150.973 151.278 150.973 151.217 150.972L151.171 154.972ZM151.4 154.973C162.272 154.973 171.106 146.21 171.106 135.374H167.106C167.106 143.978 160.086 150.973 151.4 150.973V154.973ZM171.106 135.374C171.106 124.539 162.272 115.775 151.4 115.775V119.775C160.086 119.775 167.106 126.771 167.106 135.374H171.106ZM151.4 115.775C151.324 115.775 151.248 115.776 151.172 115.777L151.217 119.776C151.278 119.776 151.339 119.775 151.4 119.775V115.775ZM149.194 117.775V117.777H153.194V117.775H149.194ZM146.62 119.775H151.194V115.775H146.62V119.775ZM148.602 118.047C148.779 116.753 148.871 115.433 148.871 114.092H144.871C144.871 115.25 144.792 116.389 144.639 117.504L148.602 118.047ZM148.871 114.092C148.871 98.0574 135.796 85.0796 119.694 85.0796V89.0796C133.61 89.0796 144.871 100.289 144.871 114.092H148.871ZM119.694 85.0796C103.592 85.0796 90.5177 98.0574 90.5177 114.092H94.5177C94.5177 100.289 105.778 89.0796 119.694 89.0796V85.0796ZM90.5177 114.092C90.5177 115.602 90.634 117.087 90.8584 118.537L94.8114 117.926C94.6181 116.677 94.5177 115.397 94.5177 114.092H90.5177ZM93.2849 116.283C91.8459 115.951 90.3482 115.775 88.8118 115.775V119.775C90.0432 119.775 91.239 119.916 92.3848 120.18L93.2849 116.283ZM88.8118 115.775C77.94 115.775 69.106 124.539 69.106 135.374H73.106C73.106 126.771 80.1263 119.775 88.8118 119.775V115.775ZM69.106 135.374C69.106 146.21 77.94 154.973 88.8118 154.973V150.973C80.1263 150.973 73.106 143.978 73.106 135.374H69.106ZM88.8118 154.973C88.8884 154.973 88.9649 154.973 89.0414 154.972L88.9958 150.972C88.9347 150.973 88.8733 150.973 88.8118 150.973V154.973ZM90.5841 154.217L90.585 154.216L87.4522 151.729L87.4512 151.73L90.5841 154.217ZM151.194 150.973H89.0177V154.973H151.194V150.973ZM149.194 152.972V152.973H153.194V152.972H149.194Z" fill="url(#paint1_linear_4_6499)" mask="url(#path-2-inside-1_4_6499)"/>
</g>
<g filter="url(#filter1_bd_4_6499)">
<mask id="path-4-inside-2_4_6499" fill="white">
<path fill-rule="evenodd" clip-rule="evenodd" d="M204.716 198.078C204.811 198.079 204.906 198.08 205.001 198.08C218.532 198.08 229.501 187.177 229.501 173.727C229.501 160.278 218.532 149.375 205.001 149.375C204.906 149.375 204.811 149.376 204.716 149.377V149.375H198.387C198.616 147.709 198.734 146.007 198.734 144.278C198.734 123.635 181.898 106.901 161.129 106.901C140.361 106.901 123.524 123.635 123.524 144.278C123.524 146.226 123.674 148.139 123.963 150.007C122.175 149.594 120.311 149.375 118.396 149.375C104.866 149.375 93.8965 160.278 93.8965 173.727C93.8965 187.177 104.866 198.08 118.396 198.08C118.492 198.08 118.587 198.079 118.683 198.078L118.681 198.08H204.716V198.078Z"/>
</mask>
<path fill-rule="evenodd" clip-rule="evenodd" d="M204.716 198.078C204.811 198.079 204.906 198.08 205.001 198.08C218.532 198.08 229.501 187.177 229.501 173.727C229.501 160.278 218.532 149.375 205.001 149.375C204.906 149.375 204.811 149.376 204.716 149.377V149.375H198.387C198.616 147.709 198.734 146.007 198.734 144.278C198.734 123.635 181.898 106.901 161.129 106.901C140.361 106.901 123.524 123.635 123.524 144.278C123.524 146.226 123.674 148.139 123.963 150.007C122.175 149.594 120.311 149.375 118.396 149.375C104.866 149.375 93.8965 160.278 93.8965 173.727C93.8965 187.177 104.866 198.08 118.396 198.08C118.492 198.08 118.587 198.079 118.683 198.078L118.681 198.08H204.716V198.078Z" fill="url(#paint2_linear_4_6499)" shape-rendering="crispEdges"/>
<path d="M204.716 198.078L204.739 196.078C204.205 196.072 203.69 196.28 203.31 196.656C202.93 197.031 202.716 197.544 202.716 198.078H204.716ZM204.716 149.377H202.716C202.716 149.911 202.93 150.424 203.31 150.799C203.69 151.175 204.205 151.383 204.739 151.377L204.716 149.377ZM204.716 149.375H206.716C206.716 148.271 205.821 147.375 204.716 147.375V149.375ZM198.387 149.375L196.406 149.104C196.327 149.676 196.5 150.255 196.88 150.69C197.26 151.126 197.809 151.375 198.387 151.375V149.375ZM123.963 150.007L123.513 151.956C124.16 152.105 124.839 151.924 125.325 151.472C125.811 151.02 126.041 150.357 125.94 149.701L123.963 150.007ZM118.683 198.078L120.249 199.322C120.729 198.718 120.818 197.891 120.479 197.198C120.139 196.505 119.432 196.069 118.66 196.078L118.683 198.078ZM118.681 198.08L117.116 196.835C116.638 197.436 116.547 198.258 116.88 198.949C117.214 199.64 117.914 200.08 118.681 200.08V198.08ZM204.716 198.08V200.08C205.821 200.08 206.716 199.184 206.716 198.08H204.716ZM204.694 200.078C204.796 200.079 204.899 200.08 205.001 200.08V196.08C204.914 196.08 204.826 196.079 204.739 196.078L204.694 200.078ZM205.001 200.08C219.625 200.08 231.501 188.293 231.501 173.727H227.501C227.501 186.061 217.439 196.08 205.001 196.08V200.08ZM231.501 173.727C231.501 159.162 219.625 147.375 205.001 147.375V151.375C217.439 151.375 227.501 161.394 227.501 173.727H231.501ZM205.001 147.375C204.899 147.375 204.796 147.376 204.694 147.377L204.739 151.377C204.826 151.376 204.914 151.375 205.001 151.375V147.375ZM202.716 149.375V149.377H206.716V149.375H202.716ZM198.387 151.375H204.716V147.375H198.387V151.375ZM200.369 149.647C200.609 147.891 200.734 146.099 200.734 144.278H196.734C196.734 145.916 196.622 147.527 196.406 149.104L200.369 149.647ZM200.734 144.278C200.734 122.519 182.991 104.901 161.129 104.901V108.901C180.804 108.901 196.734 124.751 196.734 144.278H200.734ZM161.129 104.901C139.268 104.901 121.524 122.519 121.524 144.278H125.524C125.524 124.751 141.454 108.901 161.129 108.901V104.901ZM121.524 144.278C121.524 146.329 121.682 148.344 121.987 150.313L125.94 149.701C125.666 147.934 125.524 146.124 125.524 144.278H121.524ZM124.413 148.058C122.478 147.611 120.464 147.375 118.396 147.375V151.375C120.159 151.375 121.871 151.576 123.513 151.956L124.413 148.058ZM118.396 147.375C103.772 147.375 91.8965 159.162 91.8965 173.727H95.8965C95.8965 161.394 105.959 151.375 118.396 151.375V147.375ZM91.8965 173.727C91.8965 188.293 103.772 200.08 118.396 200.08V196.08C105.959 196.08 95.8965 186.061 95.8965 173.727H91.8965ZM118.396 200.08C118.5 200.08 118.603 200.079 118.705 200.078L118.66 196.078C118.572 196.079 118.484 196.08 118.396 196.08V200.08ZM120.247 199.324L120.249 199.322L117.117 196.834L117.116 196.835L120.247 199.324ZM204.716 196.08H118.681V200.08H204.716V196.08ZM202.716 198.078V198.08H206.716V198.078H202.716Z" fill="url(#paint3_linear_4_6499)" mask="url(#path-4-inside-2_4_6499)"/>
</g>
<g filter="url(#filter2_bd_4_6499)">
<mask id="path-6-inside-3_4_6499" fill="white">
<path fill-rule="evenodd" clip-rule="evenodd" d="M249.194 172.794C249.263 172.794 249.331 172.795 249.4 172.795C259.179 172.795 267.106 164.915 267.106 155.196C267.106 145.476 259.179 137.597 249.4 137.597C249.331 137.597 249.263 137.597 249.194 137.598V137.597H244.62C244.785 136.392 244.871 135.163 244.871 133.913C244.871 118.995 232.703 106.901 217.694 106.901C202.685 106.901 190.518 118.995 190.518 133.913C190.518 135.321 190.626 136.703 190.835 138.053C189.542 137.755 188.196 137.597 186.812 137.597C177.033 137.597 169.106 145.476 169.106 155.196C169.106 164.915 177.033 172.795 186.812 172.795C186.881 172.795 186.95 172.794 187.019 172.794L187.018 172.795H249.194V172.794Z"/>
</mask>
<path fill-rule="evenodd" clip-rule="evenodd" d="M249.194 172.794C249.263 172.794 249.331 172.795 249.4 172.795C259.179 172.795 267.106 164.915 267.106 155.196C267.106 145.476 259.179 137.597 249.4 137.597C249.331 137.597 249.263 137.597 249.194 137.598V137.597H244.62C244.785 136.392 244.871 135.163 244.871 133.913C244.871 118.995 232.703 106.901 217.694 106.901C202.685 106.901 190.518 118.995 190.518 133.913C190.518 135.321 190.626 136.703 190.835 138.053C189.542 137.755 188.196 137.597 186.812 137.597C177.033 137.597 169.106 145.476 169.106 155.196C169.106 164.915 177.033 172.795 186.812 172.795C186.881 172.795 186.95 172.794 187.019 172.794L187.018 172.795H249.194V172.794Z" fill="url(#paint4_linear_4_6499)" shape-rendering="crispEdges"/>
<path d="M249.194 172.794L249.217 170.794C248.683 170.788 248.168 170.996 247.788 171.371C247.408 171.747 247.194 172.259 247.194 172.794H249.194ZM249.194 137.598H247.194C247.194 138.132 247.408 138.644 247.788 139.02C248.168 139.396 248.683 139.604 249.217 139.598L249.194 137.598ZM249.194 137.597H251.194C251.194 136.492 250.299 135.597 249.194 135.597V137.597ZM244.62 137.597L242.639 137.325C242.56 137.897 242.733 138.476 243.113 138.911C243.493 139.347 244.042 139.597 244.62 139.597V137.597ZM190.835 138.053L190.385 140.002C191.031 140.151 191.71 139.97 192.196 139.518C192.682 139.067 192.913 138.403 192.811 137.747L190.835 138.053ZM187.019 172.794L188.584 174.039C189.064 173.434 189.154 172.608 188.815 171.914C188.476 171.221 187.768 170.785 186.996 170.794L187.019 172.794ZM187.018 172.795L185.453 171.55C184.975 172.151 184.883 172.972 185.216 173.664C185.55 174.355 186.25 174.795 187.018 174.795V172.795ZM249.194 172.795V174.795C250.299 174.795 251.194 173.899 251.194 172.795H249.194ZM249.172 174.793C249.248 174.794 249.324 174.795 249.4 174.795V170.795C249.339 170.795 249.278 170.794 249.217 170.794L249.172 174.793ZM249.4 174.795C260.272 174.795 269.106 166.031 269.106 155.196H265.106C265.106 163.799 258.086 170.795 249.4 170.795V174.795ZM269.106 155.196C269.106 144.36 260.272 135.597 249.4 135.597V139.597C258.086 139.597 265.106 146.592 265.106 155.196H269.106ZM249.4 135.597C249.324 135.597 249.248 135.597 249.172 135.598L249.217 139.598C249.278 139.597 249.339 139.597 249.4 139.597V135.597ZM247.194 137.597V137.598H251.194V137.597H247.194ZM244.62 139.597H249.194V135.597H244.62V139.597ZM246.602 137.869C246.779 136.574 246.871 135.254 246.871 133.913H242.871C242.871 135.072 242.792 136.21 242.639 137.325L246.602 137.869ZM246.871 133.913C246.871 117.879 233.796 104.901 217.694 104.901V108.901C231.61 108.901 242.871 120.111 242.871 133.913H246.871ZM217.694 104.901C201.592 104.901 188.518 117.879 188.518 133.913H192.518C192.518 120.111 203.778 108.901 217.694 108.901V104.901ZM188.518 133.913C188.518 135.424 188.634 136.908 188.858 138.359L192.811 137.747C192.618 136.498 192.518 135.218 192.518 133.913H188.518ZM191.285 136.104C189.846 135.772 188.348 135.597 186.812 135.597V139.597C188.043 139.597 189.239 139.737 190.385 140.002L191.285 136.104ZM186.812 135.597C175.94 135.597 167.106 144.36 167.106 155.196H171.106C171.106 146.592 178.126 139.597 186.812 139.597V135.597ZM167.106 155.196C167.106 166.031 175.94 174.795 186.812 174.795V170.795C178.126 170.795 171.106 163.799 171.106 155.196H167.106ZM186.812 174.795C186.888 174.795 186.965 174.794 187.042 174.793L186.996 170.794C186.935 170.794 186.873 170.795 186.812 170.795V174.795ZM188.583 174.04L188.584 174.039L185.454 171.548L185.453 171.55L188.583 174.04ZM249.194 170.795H187.018V174.795H249.194V170.795ZM247.194 172.794V172.795H251.194V172.794H247.194Z" fill="url(#paint5_linear_4_6499)" mask="url(#path-6-inside-3_4_6499)"/>
</g>
<defs>
<filter id="filter0_bd_4_6499" x="0.105957" y="52.0796" width="198" height="165.894" filterUnits="userSpaceOnUse" color-interpolation-filters="sRGB">
<feFlood flood-opacity="0" result="BackgroundImageFix"/>
<feGaussianBlur in="BackgroundImageFix" stdDeviation="7"/>
<feComposite in2="SourceAlpha" operator="in" result="effect1_backgroundBlur_4_6499"/>
<feColorMatrix in="SourceAlpha" type="matrix" values="0 0 0 0 0 0 0 0 0 0 0 0 0 0 0 0 0 0 127 0" result="hardAlpha"/>
<feOffset dx="-21" dy="15"/>
<feGaussianBlur stdDeviation="25"/>
<feComposite in2="hardAlpha" operator="out"/>
<feColorMatrix type="matrix" values="0 0 0 0 0.113438 0 0 0 0 0.148981 0 0 0 0 0.275 0 0 0 0.25 0"/>
<feBlend mode="normal" in2="effect1_backgroundBlur_4_6499" result="effect2_dropShadow_4_6499"/>
<feBlend mode="normal" in="SourceGraphic" in2="effect2_dropShadow_4_6499" result="shape"/>
</filter>
<filter id="filter1_bd_4_6499" x="22.8965" y="71.9009" width="235.605" height="191.179" filterUnits="userSpaceOnUse" color-interpolation-filters="sRGB">
<feFlood flood-opacity="0" result="BackgroundImageFix"/>
<feGaussianBlur in="BackgroundImageFix" stdDeviation="7"/>
<feComposite in2="SourceAlpha" operator="in" result="effect1_backgroundBlur_4_6499"/>
<feColorMatrix in="SourceAlpha" type="matrix" values="0 0 0 0 0 0 0 0 0 0 0 0 0 0 0 0 0 0 127 0" result="hardAlpha"/>
<feOffset dx="-21" dy="15"/>
<feGaussianBlur stdDeviation="25"/>
<feComposite in2="hardAlpha" operator="out"/>
<feColorMatrix type="matrix" values="0 0 0 0 0.113725 0 0 0 0 0.14902 0 0 0 0 0.27451 0 0 0 0.25 0"/>
<feBlend mode="normal" in2="effect1_backgroundBlur_4_6499" result="effect2_dropShadow_4_6499"/>
<feBlend mode="normal" in="SourceGraphic" in2="effect2_dropShadow_4_6499" result="shape"/>
</filter>
<filter id="filter2_bd_4_6499" x="98.106" y="71.9009" width="198" height="165.894" filterUnits="userSpaceOnUse" color-interpolation-filters="sRGB">
<feFlood flood-opacity="0" result="BackgroundImageFix"/>
<feGaussianBlur in="BackgroundImageFix" stdDeviation="7"/>
<feComposite in2="SourceAlpha" operator="in" result="effect1_backgroundBlur_4_6499"/>
<feColorMatrix in="SourceAlpha" type="matrix" values="0 0 0 0 0 0 0 0 0 0 0 0 0 0 0 0 0 0 127 0" result="hardAlpha"/>
<feOffset dx="-21" dy="15"/>
<feGaussianBlur stdDeviation="25"/>
<feComposite in2="hardAlpha" operator="out"/>
<feColorMatrix type="matrix" values="0 0 0 0 0.113438 0 0 0 0 0.148981 0 0 0 0 0.275 0 0 0 0.25 0"/>
<feBlend mode="normal" in2="effect1_backgroundBlur_4_6499" result="effect2_dropShadow_4_6499"/>
<feBlend mode="normal" in="SourceGraphic" in2="effect2_dropShadow_4_6499" result="shape"/>
</filter>
<linearGradient id="paint0_linear_4_6499" x1="124.664" y1="89.0617" x2="124.664" y2="160.419" gradientUnits="userSpaceOnUse">
<stop stop-color="white"/>
<stop offset="1" stop-color="white" stop-opacity="0"/>
</linearGradient>
<linearGradient id="paint1_linear_4_6499" x1="120.106" y1="87.0796" x2="120.106" y2="152.973" gradientUnits="userSpaceOnUse">
<stop stop-color="white"/>
<stop offset="1" stop-color="white" stop-opacity="0"/>
</linearGradient>
<linearGradient id="paint2_linear_4_6499" x1="161.699" y1="77.7351" x2="161.699" y2="210.822" gradientUnits="userSpaceOnUse">
<stop stop-color="white"/>
<stop offset="1" stop-color="white" stop-opacity="0"/>
</linearGradient>
<linearGradient id="paint3_linear_4_6499" x1="161.699" y1="106.901" x2="161.699" y2="198.079" gradientUnits="userSpaceOnUse">
<stop stop-color="white"/>
<stop offset="1" stop-color="white" stop-opacity="0"/>
</linearGradient>
<linearGradient id="paint4_linear_4_6499" x1="222.664" y1="108.883" x2="222.664" y2="180.24" gradientUnits="userSpaceOnUse">
<stop stop-color="white"/>
<stop offset="1" stop-color="white" stop-opacity="0"/>
</linearGradient>
<linearGradient id="paint5_linear_4_6499" x1="218.106" y1="106.901" x2="218.106" y2="172.795" gradientUnits="userSpaceOnUse">
<stop stop-color="white"/>
<stop offset="1" stop-color="white" stop-opacity="0"/>
</linearGradient>
</defs>
</svg>
