<svg width="310" height="310" viewBox="0 0 310 310" fill="none" xmlns="http://www.w3.org/2000/svg">
<rect x="12" y="12" width="286.212" height="285.159" rx="20" fill="#121E3D"/>
<g filter="url(#filter0_f_4_6483)">
<ellipse cx="155.106" cy="154.579" rx="54.5" ry="54.4999" fill="#FFC701" fill-opacity="0.35"/>
</g>
<path d="M206.819 156.366C206.819 184.927 183.666 208.08 155.106 208.08C126.546 208.08 103.393 184.927 103.393 156.366C103.393 127.806 126.546 104.653 155.106 104.653C183.666 104.653 206.819 127.806 206.819 156.366Z" fill="url(#paint0_linear_4_6483)" stroke="url(#paint1_linear_4_6483)" stroke-width="2"/>
<mask id="mask0_4_6483" style="mask-type:alpha" maskUnits="userSpaceOnUse" x="102" y="133" width="106" height="77">
<path d="M207.819 156.367C207.819 185.479 184.219 209.08 155.106 209.08C125.993 209.08 102.393 185.479 102.393 156.367C102.393 127.254 121.973 134.03 151.086 134.03C180.198 134.03 207.819 127.254 207.819 156.367Z" fill="url(#paint2_linear_4_6483)"/>
</mask>
<g mask="url(#mask0_4_6483)">
<g filter="url(#filter1_f_4_6483)">
<path fill-rule="evenodd" clip-rule="evenodd" d="M235.516 252.858C235.516 274.076 218.316 291.276 197.098 291.276C196.949 291.276 196.8 291.275 196.652 291.274V291.276H61.7414L61.7427 291.274C61.5935 291.276 61.4441 291.277 61.2945 291.277C40.0768 291.277 22.8765 274.077 22.8765 252.859C22.8765 231.641 40.0768 214.441 61.2945 214.441C79.5834 214.441 94.8875 227.221 98.764 244.337L111.774 227.842L152.426 214.44H196.652V214.443C196.8 214.441 196.949 214.44 197.098 214.44C218.316 214.44 235.516 231.641 235.516 252.858Z" fill="#E18700"/>
</g>
</g>
<defs>
<filter id="filter0_f_4_6483" x="0.605957" y="0.0795898" width="309" height="309" filterUnits="userSpaceOnUse" color-interpolation-filters="sRGB">
<feFlood flood-opacity="0" result="BackgroundImageFix"/>
<feBlend mode="normal" in="SourceGraphic" in2="BackgroundImageFix" result="shape"/>
<feGaussianBlur stdDeviation="50" result="effect1_foregroundBlur_4_6483"/>
</filter>
<filter id="filter1_f_4_6483" x="8.87646" y="200.44" width="240.64" height="104.837" filterUnits="userSpaceOnUse" color-interpolation-filters="sRGB">
<feFlood flood-opacity="0" result="BackgroundImageFix"/>
<feBlend mode="normal" in="SourceGraphic" in2="BackgroundImageFix" result="shape"/>
<feGaussianBlur stdDeviation="7" result="effect1_foregroundBlur_4_6483"/>
</filter>
<linearGradient id="paint0_linear_4_6483" x1="155.106" y1="103.653" x2="155.106" y2="209.08" gradientUnits="userSpaceOnUse">
<stop stop-color="#FFE600"/>
<stop offset="1" stop-color="#FF7A00"/>
</linearGradient>
<linearGradient id="paint1_linear_4_6483" x1="155.106" y1="103.653" x2="155.106" y2="209.08" gradientUnits="userSpaceOnUse">
<stop stop-color="white"/>
<stop offset="1" stop-color="white" stop-opacity="0"/>
</linearGradient>
<linearGradient id="paint2_linear_4_6483" x1="155.106" y1="103.653" x2="155.106" y2="209.08" gradientUnits="userSpaceOnUse">
<stop stop-color="#FFD600"/>
<stop offset="1" stop-color="#FF7A00"/>
</linearGradient>
</defs>
</svg>
