<svg width="302" height="286" viewBox="0 0 302 286" fill="none" xmlns="http://www.w3.org/2000/svg">
<rect x="15" width="286.212" height="285.159" rx="20" fill="#121E3D"/>
<g filter="url(#filter0_bd_4_6501)">
<mask id="path-2-inside-1_4_6501" fill="white">
<path fill-rule="evenodd" clip-rule="evenodd" d="M142.205 123.101C142.266 123.102 142.326 123.102 142.387 123.102C151.069 123.102 158.106 116.044 158.106 107.338C158.106 98.6321 151.069 91.5745 142.387 91.5745C142.326 91.5745 142.266 91.5748 142.205 91.5755V91.5745H138.144C138.291 90.4957 138.366 89.3942 138.366 88.2751C138.366 74.9123 127.565 64.0796 114.24 64.0796C100.916 64.0796 90.1144 74.9123 90.1144 88.2751C90.1144 89.536 90.2105 90.7743 90.3959 91.9832C89.2485 91.7158 88.053 91.5745 86.8245 91.5745C78.1434 91.5745 71.106 98.6321 71.106 107.338C71.106 116.044 78.1434 123.102 86.8245 123.102C86.8857 123.102 86.9469 123.102 87.008 123.101L87.0072 123.102H142.205V123.101Z"/>
</mask>
<path fill-rule="evenodd" clip-rule="evenodd" d="M142.205 123.101C142.266 123.102 142.326 123.102 142.387 123.102C151.069 123.102 158.106 116.044 158.106 107.338C158.106 98.6321 151.069 91.5745 142.387 91.5745C142.326 91.5745 142.266 91.5748 142.205 91.5755V91.5745H138.144C138.291 90.4957 138.366 89.3942 138.366 88.2751C138.366 74.9123 127.565 64.0796 114.24 64.0796C100.916 64.0796 90.1144 74.9123 90.1144 88.2751C90.1144 89.536 90.2105 90.7743 90.3959 91.9832C89.2485 91.7158 88.053 91.5745 86.8245 91.5745C78.1434 91.5745 71.106 98.6321 71.106 107.338C71.106 116.044 78.1434 123.102 86.8245 123.102C86.8857 123.102 86.9469 123.102 87.008 123.101L87.0072 123.102H142.205V123.101Z" fill="url(#paint0_linear_4_6501)" shape-rendering="crispEdges"/>
<path d="M142.205 123.101L142.228 121.101C141.693 121.095 141.179 121.303 140.799 121.679C140.419 122.054 140.205 122.566 140.205 123.101H142.205ZM142.205 91.5755H140.205C140.205 92.1099 140.419 92.6221 140.799 92.9978C141.179 93.3735 141.693 93.5815 142.228 93.5754L142.205 91.5755ZM142.205 91.5745H144.205C144.205 90.4699 143.309 89.5745 142.205 89.5745V91.5745ZM138.144 91.5745L136.162 91.305C136.084 91.8772 136.258 92.455 136.638 92.89C137.017 93.3249 137.567 93.5745 138.144 93.5745V91.5745ZM90.3959 91.9832L89.9421 93.931C90.5886 94.0816 91.2677 93.9016 91.7548 93.4506C92.2419 92.9995 92.4734 92.3362 92.3728 91.68L90.3959 91.9832ZM87.008 123.101L88.5802 124.337C89.0561 123.732 89.1423 122.907 88.8019 122.217C88.4615 121.526 87.7549 121.092 86.985 121.101L87.008 123.101ZM87.0072 123.102L85.4349 121.866C84.9616 122.468 84.8736 123.287 85.2082 123.976C85.5429 124.665 86.2414 125.102 87.0072 125.102V123.102ZM142.205 123.102V125.102C143.309 125.102 144.205 124.206 144.205 123.102H142.205ZM142.182 125.101C142.25 125.102 142.319 125.102 142.387 125.102V121.102C142.334 121.102 142.281 121.102 142.228 121.101L142.182 125.101ZM142.387 125.102C152.179 125.102 160.106 117.143 160.106 107.338H156.106C156.106 114.945 149.959 121.102 142.387 121.102V125.102ZM160.106 107.338C160.106 97.533 152.179 89.5745 142.387 89.5745V93.5745C149.959 93.5745 156.106 99.7313 156.106 107.338H160.106ZM142.387 89.5745C142.319 89.5745 142.25 89.5749 142.182 89.5756L142.228 93.5754C142.281 93.5748 142.334 93.5745 142.387 93.5745V89.5745ZM140.205 91.5745V91.5755H144.205V91.5745H140.205ZM138.144 93.5745H142.205V89.5745H138.144V93.5745ZM140.126 91.8439C140.285 90.676 140.366 89.4846 140.366 88.2751H136.366C136.366 89.3039 136.297 90.3153 136.162 91.305L140.126 91.8439ZM140.366 88.2751C140.366 73.8131 128.675 62.0796 114.24 62.0796V66.0796C126.455 66.0796 136.366 76.0114 136.366 88.2751H140.366ZM114.24 62.0796C99.806 62.0796 88.1144 73.8131 88.1144 88.2751H92.1144C92.1144 76.0114 102.026 66.0796 114.24 66.0796V62.0796ZM88.1144 88.2751C88.1144 89.6378 88.2183 90.9775 88.419 92.2863L92.3728 91.68C92.2028 90.5711 92.1144 89.4341 92.1144 88.2751H88.1144ZM90.8498 90.0353C89.5547 89.7336 88.2068 89.5745 86.8245 89.5745V93.5745C87.8991 93.5745 88.9424 93.698 89.9421 93.931L90.8498 90.0353ZM86.8245 89.5745C77.0334 89.5745 69.106 97.533 69.106 107.338H73.106C73.106 99.7313 79.2534 93.5745 86.8245 93.5745V89.5745ZM69.106 107.338C69.106 117.143 77.0334 125.102 86.8245 125.102V121.102C79.2534 121.102 73.106 114.945 73.106 107.338H69.106ZM86.8245 125.102C86.8934 125.102 86.9622 125.102 87.031 125.101L86.985 121.101C86.9316 121.102 86.8781 121.102 86.8245 121.102V125.102ZM88.5794 124.338L88.5802 124.337L85.4358 121.865L85.4349 121.866L88.5794 124.338ZM142.205 121.102H87.0072V125.102H142.205V121.102ZM140.205 123.101V123.102H144.205V123.101H140.205Z" fill="url(#paint1_linear_4_6501)" mask="url(#path-2-inside-1_4_6501)"/>
</g>
<g filter="url(#filter1_bd_4_6501)">
<mask id="path-4-inside-2_4_6501" fill="white">
<path fill-rule="evenodd" clip-rule="evenodd" d="M189.719 163.503C189.803 163.504 189.888 163.504 189.972 163.504C201.984 163.504 211.722 153.739 211.722 141.692C211.722 129.645 201.984 119.879 189.972 119.879C189.888 119.879 189.803 119.88 189.719 119.881V119.879H184.1C184.303 118.386 184.408 116.862 184.408 115.314C184.408 96.8234 169.462 81.834 151.025 81.834C132.587 81.834 117.641 96.8234 117.641 115.314C117.641 117.058 117.774 118.772 118.03 120.445C116.443 120.075 114.788 119.879 113.088 119.879C101.076 119.879 91.3384 129.645 91.3384 141.692C91.3384 153.739 101.076 163.504 113.088 163.504C113.173 163.504 113.258 163.504 113.342 163.503L113.341 163.504H189.719V163.503Z"/>
</mask>
<path fill-rule="evenodd" clip-rule="evenodd" d="M189.719 163.503C189.803 163.504 189.888 163.504 189.972 163.504C201.984 163.504 211.722 153.739 211.722 141.692C211.722 129.645 201.984 119.879 189.972 119.879C189.888 119.879 189.803 119.88 189.719 119.881V119.879H184.1C184.303 118.386 184.408 116.862 184.408 115.314C184.408 96.8234 169.462 81.834 151.025 81.834C132.587 81.834 117.641 96.8234 117.641 115.314C117.641 117.058 117.774 118.772 118.03 120.445C116.443 120.075 114.788 119.879 113.088 119.879C101.076 119.879 91.3384 129.645 91.3384 141.692C91.3384 153.739 101.076 163.504 113.088 163.504C113.173 163.504 113.258 163.504 113.342 163.503L113.341 163.504H189.719V163.503Z" fill="url(#paint2_linear_4_6501)" shape-rendering="crispEdges"/>
<path d="M189.719 163.503L189.742 161.503C189.208 161.497 188.693 161.705 188.313 162.081C187.933 162.456 187.719 162.969 187.719 163.503H189.719ZM189.719 119.881H187.719C187.719 120.415 187.933 120.927 188.313 121.303C188.693 121.679 189.208 121.887 189.742 121.88L189.719 119.881ZM189.719 119.879H191.719C191.719 118.775 190.824 117.879 189.719 117.879V119.879ZM184.1 119.879L182.119 119.61C182.041 120.182 182.214 120.76 182.594 121.195C182.974 121.63 183.523 121.879 184.1 121.879V119.879ZM118.03 120.445L117.576 122.393C118.223 122.543 118.902 122.363 119.389 121.912C119.876 121.461 120.108 120.798 120.007 120.142L118.03 120.445ZM113.342 163.503L114.914 164.739C115.39 164.134 115.477 163.31 115.136 162.619C114.796 161.928 114.089 161.494 113.32 161.503L113.342 163.503ZM113.341 163.504L111.769 162.268C111.296 162.87 111.208 163.689 111.542 164.378C111.877 165.067 112.575 165.504 113.341 165.504V163.504ZM189.719 163.504V165.504C190.824 165.504 191.719 164.609 191.719 163.504H189.719ZM189.696 165.503C189.788 165.504 189.88 165.504 189.972 165.504V161.504C189.895 161.504 189.819 161.504 189.742 161.503L189.696 165.503ZM189.972 165.504C203.094 165.504 213.722 154.838 213.722 141.692H209.722C209.722 152.639 200.874 161.504 189.972 161.504V165.504ZM213.722 141.692C213.722 128.546 203.094 117.879 189.972 117.879V121.879C200.874 121.879 209.722 130.744 209.722 141.692H213.722ZM189.972 117.879C189.88 117.879 189.788 117.88 189.696 117.881L189.742 121.88C189.819 121.88 189.895 121.879 189.972 121.879V117.879ZM187.719 119.879V119.881H191.719V119.879H187.719ZM184.1 121.879H189.719V117.879H184.1V121.879ZM186.082 120.149C186.297 118.567 186.408 116.953 186.408 115.314H182.408C182.408 116.772 182.31 118.206 182.119 119.61L186.082 120.149ZM186.408 115.314C186.408 95.7243 170.572 79.834 151.025 79.834V83.834C168.352 83.834 182.408 97.9226 182.408 115.314H186.408ZM151.025 79.834C131.477 79.834 115.641 95.7243 115.641 115.314H119.641C119.641 97.9226 133.697 83.834 151.025 83.834V79.834ZM115.641 115.314C115.641 117.16 115.782 118.975 116.053 120.748L120.007 120.142C119.766 118.569 119.641 116.957 119.641 115.314H115.641ZM118.484 118.497C116.749 118.093 114.942 117.879 113.088 117.879V121.879C114.634 121.879 116.137 122.057 117.576 122.393L118.484 118.497ZM113.088 117.879C99.9662 117.879 89.3384 128.546 89.3384 141.692H93.3384C93.3384 130.744 102.186 121.879 113.088 121.879V117.879ZM89.3384 141.692C89.3384 154.838 99.9662 165.504 113.088 165.504V161.504C102.186 161.504 93.3384 152.639 93.3384 141.692H89.3384ZM113.088 165.504C113.181 165.504 113.273 165.504 113.365 165.503L113.32 161.503C113.243 161.504 113.166 161.504 113.088 161.504V165.504ZM114.913 164.741L114.914 164.739L111.771 162.266L111.769 162.268L114.913 164.741ZM189.719 161.504H113.341V165.504H189.719V161.504ZM187.719 163.503V163.504H191.719V163.503H187.719Z" fill="url(#paint3_linear_4_6501)" mask="url(#path-4-inside-2_4_6501)"/>
</g>
<g filter="url(#filter2_bdd_4_6501)">
<path d="M174.386 169.932L197.497 127.517C197.847 126.874 198.521 126.474 199.253 126.474H220.814C222.316 126.474 223.282 128.068 222.586 129.4L208.951 155.506C208.255 156.838 209.221 158.432 210.724 158.432H225.467C227.194 158.432 228.109 160.474 226.959 161.763L181.119 213.144C179.646 214.795 176.98 213.187 177.752 211.115L190.99 175.587C191.477 174.281 190.51 172.889 189.116 172.889H176.142C174.624 172.889 173.659 171.265 174.386 169.932Z" fill="url(#paint4_linear_4_6501)"/>
<path d="M175.264 170.411L198.375 127.995C198.55 127.674 198.887 127.474 199.253 127.474H220.814C221.565 127.474 222.048 128.271 221.7 128.937L208.065 155.043C207.021 157.04 208.47 159.432 210.724 159.432H225.467C226.331 159.432 226.788 160.453 226.213 161.098L180.372 212.479C179.636 213.304 178.303 212.5 178.689 211.464L191.927 175.937C192.657 173.976 191.208 171.889 189.116 171.889H176.142C175.383 171.889 174.901 171.077 175.264 170.411Z" stroke="url(#paint5_linear_4_6501)" stroke-width="2"/>
</g>
<g filter="url(#filter3_bd_4_6501)">
<mask id="path-8-inside-3_4_6501" fill="white">
<path fill-rule="evenodd" clip-rule="evenodd" d="M229.205 140.855C229.266 140.856 229.326 140.856 229.387 140.856C238.069 140.856 245.106 133.799 245.106 125.093C245.106 116.386 238.069 109.329 229.387 109.329C229.326 109.329 229.266 109.329 229.205 109.33V109.329H225.144C225.291 108.25 225.366 107.149 225.366 106.029C225.366 92.6667 214.565 81.834 201.24 81.834C187.916 81.834 177.114 92.6667 177.114 106.029C177.114 107.29 177.211 108.529 177.396 109.738C176.249 109.47 175.053 109.329 173.824 109.329C165.143 109.329 158.106 116.386 158.106 125.093C158.106 133.799 165.143 140.856 173.824 140.856C173.886 140.856 173.947 140.856 174.008 140.855L174.007 140.856H229.205V140.855Z"/>
</mask>
<path fill-rule="evenodd" clip-rule="evenodd" d="M229.205 140.855C229.266 140.856 229.326 140.856 229.387 140.856C238.069 140.856 245.106 133.799 245.106 125.093C245.106 116.386 238.069 109.329 229.387 109.329C229.326 109.329 229.266 109.329 229.205 109.33V109.329H225.144C225.291 108.25 225.366 107.149 225.366 106.029C225.366 92.6667 214.565 81.834 201.24 81.834C187.916 81.834 177.114 92.6667 177.114 106.029C177.114 107.29 177.211 108.529 177.396 109.738C176.249 109.47 175.053 109.329 173.824 109.329C165.143 109.329 158.106 116.386 158.106 125.093C158.106 133.799 165.143 140.856 173.824 140.856C173.886 140.856 173.947 140.856 174.008 140.855L174.007 140.856H229.205V140.855Z" fill="url(#paint6_linear_4_6501)" shape-rendering="crispEdges"/>
<path d="M229.205 140.855L229.228 138.855C228.693 138.849 228.179 139.057 227.799 139.433C227.419 139.809 227.205 140.321 227.205 140.855H229.205ZM229.205 109.33H227.205C227.205 109.864 227.419 110.376 227.799 110.752C228.179 111.128 228.693 111.336 229.228 111.33L229.205 109.33ZM229.205 109.329H231.205C231.205 108.224 230.309 107.329 229.205 107.329V109.329ZM225.144 109.329L223.162 109.059C223.084 109.632 223.258 110.209 223.638 110.644C224.017 111.079 224.567 111.329 225.144 111.329V109.329ZM177.396 109.738L176.942 111.685C177.589 111.836 178.268 111.656 178.755 111.205C179.242 110.754 179.473 110.091 179.373 109.434L177.396 109.738ZM174.008 140.855L175.58 142.092C176.056 141.487 176.143 140.662 175.802 139.972C175.462 139.281 174.755 138.847 173.985 138.855L174.008 140.855ZM174.007 140.856L172.436 139.619C171.962 140.221 171.874 141.041 172.208 141.73C172.543 142.419 173.241 142.856 174.007 142.856V140.856ZM229.205 140.856V142.856C230.309 142.856 231.205 141.961 231.205 140.856H229.205ZM229.182 142.855C229.25 142.856 229.319 142.856 229.387 142.856V138.856C229.334 138.856 229.281 138.856 229.228 138.855L229.182 142.855ZM229.387 142.856C239.179 142.856 247.106 134.898 247.106 125.093H243.106C243.106 132.699 236.959 138.856 229.387 138.856V142.856ZM247.106 125.093C247.106 115.287 239.179 107.329 229.387 107.329V111.329C236.959 111.329 243.106 117.486 243.106 125.093H247.106ZM229.387 107.329C229.319 107.329 229.25 107.329 229.182 107.33L229.228 111.33C229.281 111.329 229.334 111.329 229.387 111.329V107.329ZM227.205 109.329V109.33H231.205V109.329H227.205ZM225.144 111.329H229.205V107.329H225.144V111.329ZM227.126 109.598C227.285 108.43 227.366 107.239 227.366 106.029H223.366C223.366 107.058 223.297 108.07 223.162 109.059L227.126 109.598ZM227.366 106.029C227.366 91.5675 215.675 79.834 201.24 79.834V83.834C213.455 83.834 223.366 93.7658 223.366 106.029H227.366ZM201.24 79.834C186.806 79.834 175.114 91.5675 175.114 106.029H179.114C179.114 93.7658 189.026 83.834 201.24 83.834V79.834ZM175.114 106.029C175.114 107.392 175.218 108.732 175.419 110.041L179.373 109.434C179.203 108.325 179.114 107.188 179.114 106.029H175.114ZM177.85 107.79C176.555 107.488 175.207 107.329 173.824 107.329V111.329C174.899 111.329 175.942 111.452 176.942 111.685L177.85 107.79ZM173.824 107.329C164.033 107.329 156.106 115.287 156.106 125.093H160.106C160.106 117.486 166.253 111.329 173.824 111.329V107.329ZM156.106 125.093C156.106 134.898 164.033 142.856 173.824 142.856V138.856C166.253 138.856 160.106 132.699 160.106 125.093H156.106ZM173.824 142.856C173.893 142.856 173.962 142.856 174.031 142.855L173.985 138.855C173.932 138.856 173.878 138.856 173.824 138.856V142.856ZM175.579 142.093L175.58 142.092L172.437 139.618L172.436 139.619L175.579 142.093ZM229.205 138.856H174.007V142.856H229.205V138.856ZM227.205 140.855V140.856H231.205V140.855H227.205Z" fill="url(#paint7_linear_4_6501)" mask="url(#path-8-inside-3_4_6501)"/>
</g>
<g filter="url(#filter4_bdd_4_6501)">
<path d="M94.6041 170.57C95.9979 168.776 98.8704 169.652 99.032 171.92L99.6256 180.257C99.9085 184.231 96.1244 187.249 92.3163 186.087C88.5082 184.925 87.041 180.305 89.4822 177.163L94.6041 170.57Z" fill="url(#paint8_linear_4_6501)" stroke="url(#paint9_linear_4_6501)" stroke-width="2"/>
<path d="M123.692 170.57C125.086 168.776 127.959 169.652 128.12 171.92L128.714 180.257C128.997 184.231 125.213 187.249 121.405 186.087C117.597 184.925 116.129 180.305 118.571 177.163L123.692 170.57Z" fill="url(#paint10_linear_4_6501)" stroke="url(#paint11_linear_4_6501)" stroke-width="2"/>
<path d="M152.78 170.57C154.174 168.776 157.047 169.652 157.208 171.92L157.802 180.257C158.085 184.231 154.301 187.249 150.493 186.087C146.684 184.925 145.217 180.305 147.658 177.163L152.78 170.57Z" fill="url(#paint12_linear_4_6501)" stroke="url(#paint13_linear_4_6501)" stroke-width="2"/>
</g>
<g filter="url(#filter5_bdd_4_6501)">
<path d="M105.732 193.661C107.126 191.867 109.998 192.743 110.16 195.012L110.753 203.348C111.036 207.322 107.252 210.34 103.444 209.178C99.6361 208.016 98.1689 203.396 100.61 200.254L105.732 193.661Z" fill="url(#paint14_linear_4_6501)" stroke="url(#paint15_linear_4_6501)" stroke-width="2"/>
<path d="M135.069 193.661C136.463 191.867 139.336 192.743 139.497 195.012L140.091 203.348C140.374 207.322 136.59 210.34 132.782 209.178C128.974 208.016 127.506 203.396 129.948 200.254L135.069 193.661Z" fill="url(#paint16_linear_4_6501)" stroke="url(#paint17_linear_4_6501)" stroke-width="2"/>
</g>
<defs>
<filter id="filter0_bd_4_6501" x="0.105957" y="29.0796" width="187" height="159.022" filterUnits="userSpaceOnUse" color-interpolation-filters="sRGB">
<feFlood flood-opacity="0" result="BackgroundImageFix"/>
<feGaussianBlur in="BackgroundImageFix" stdDeviation="7"/>
<feComposite in2="SourceAlpha" operator="in" result="effect1_backgroundBlur_4_6501"/>
<feColorMatrix in="SourceAlpha" type="matrix" values="0 0 0 0 0 0 0 0 0 0 0 0 0 0 0 0 0 0 127 0" result="hardAlpha"/>
<feOffset dx="-21" dy="15"/>
<feGaussianBlur stdDeviation="25"/>
<feComposite in2="hardAlpha" operator="out"/>
<feColorMatrix type="matrix" values="0 0 0 0 0.113438 0 0 0 0 0.148981 0 0 0 0 0.275 0 0 0 0.25 0"/>
<feBlend mode="normal" in2="effect1_backgroundBlur_4_6501" result="effect2_dropShadow_4_6501"/>
<feBlend mode="normal" in="SourceGraphic" in2="effect2_dropShadow_4_6501" result="shape"/>
</filter>
<filter id="filter1_bd_4_6501" x="20.3384" y="46.834" width="220.384" height="181.67" filterUnits="userSpaceOnUse" color-interpolation-filters="sRGB">
<feFlood flood-opacity="0" result="BackgroundImageFix"/>
<feGaussianBlur in="BackgroundImageFix" stdDeviation="7"/>
<feComposite in2="SourceAlpha" operator="in" result="effect1_backgroundBlur_4_6501"/>
<feColorMatrix in="SourceAlpha" type="matrix" values="0 0 0 0 0 0 0 0 0 0 0 0 0 0 0 0 0 0 127 0" result="hardAlpha"/>
<feOffset dx="-21" dy="15"/>
<feGaussianBlur stdDeviation="25"/>
<feComposite in2="hardAlpha" operator="out"/>
<feColorMatrix type="matrix" values="0 0 0 0 0.113725 0 0 0 0 0.14902 0 0 0 0 0.27451 0 0 0 0.25 0"/>
<feBlend mode="normal" in2="effect1_backgroundBlur_4_6501" result="effect2_dropShadow_4_6501"/>
<feBlend mode="normal" in="SourceGraphic" in2="effect2_dropShadow_4_6501" result="shape"/>
</filter>
<filter id="filter2_bdd_4_6501" x="103.139" y="65.4739" width="185.332" height="213.353" filterUnits="userSpaceOnUse" color-interpolation-filters="sRGB">
<feFlood flood-opacity="0" result="BackgroundImageFix"/>
<feGaussianBlur in="BackgroundImageFix" stdDeviation="7"/>
<feComposite in2="SourceAlpha" operator="in" result="effect1_backgroundBlur_4_6501"/>
<feColorMatrix in="SourceAlpha" type="matrix" values="0 0 0 0 0 0 0 0 0 0 0 0 0 0 0 0 0 0 127 0" result="hardAlpha"/>
<feOffset dx="-21" dy="15"/>
<feGaussianBlur stdDeviation="25"/>
<feComposite in2="hardAlpha" operator="out"/>
<feColorMatrix type="matrix" values="0 0 0 0 0.113438 0 0 0 0 0.148981 0 0 0 0 0.275 0 0 0 0.25 0"/>
<feBlend mode="normal" in2="effect1_backgroundBlur_4_6501" result="effect2_dropShadow_4_6501"/>
<feColorMatrix in="SourceAlpha" type="matrix" values="0 0 0 0 0 0 0 0 0 0 0 0 0 0 0 0 0 0 127 0" result="hardAlpha"/>
<feOffset/>
<feGaussianBlur stdDeviation="30.5"/>
<feComposite in2="hardAlpha" operator="out"/>
<feColorMatrix type="matrix" values="0 0 0 0 1 0 0 0 0 0.721569 0 0 0 0 0.00392157 0 0 0 0.49 0"/>
<feBlend mode="normal" in2="effect2_dropShadow_4_6501" result="effect3_dropShadow_4_6501"/>
<feBlend mode="normal" in="SourceGraphic" in2="effect3_dropShadow_4_6501" result="shape"/>
</filter>
<filter id="filter3_bd_4_6501" x="87.106" y="46.834" width="187" height="159.022" filterUnits="userSpaceOnUse" color-interpolation-filters="sRGB">
<feFlood flood-opacity="0" result="BackgroundImageFix"/>
<feGaussianBlur in="BackgroundImageFix" stdDeviation="7"/>
<feComposite in2="SourceAlpha" operator="in" result="effect1_backgroundBlur_4_6501"/>
<feColorMatrix in="SourceAlpha" type="matrix" values="0 0 0 0 0 0 0 0 0 0 0 0 0 0 0 0 0 0 127 0" result="hardAlpha"/>
<feOffset dx="-21" dy="15"/>
<feGaussianBlur stdDeviation="25"/>
<feComposite in2="hardAlpha" operator="out"/>
<feColorMatrix type="matrix" values="0 0 0 0 0.113438 0 0 0 0 0.148981 0 0 0 0 0.275 0 0 0 0.25 0"/>
<feBlend mode="normal" in2="effect1_backgroundBlur_4_6501" result="effect2_dropShadow_4_6501"/>
<feBlend mode="normal" in="SourceGraphic" in2="effect2_dropShadow_4_6501" result="shape"/>
</filter>
<filter id="filter4_bdd_4_6501" x="16.2856" y="120.608" width="183.531" height="131.731" filterUnits="userSpaceOnUse" color-interpolation-filters="sRGB">
<feFlood flood-opacity="0" result="BackgroundImageFix"/>
<feGaussianBlur in="BackgroundImageFix" stdDeviation="7"/>
<feComposite in2="SourceAlpha" operator="in" result="effect1_backgroundBlur_4_6501"/>
<feColorMatrix in="SourceAlpha" type="matrix" values="0 0 0 0 0 0 0 0 0 0 0 0 0 0 0 0 0 0 127 0" result="hardAlpha"/>
<feOffset dx="-21" dy="15"/>
<feGaussianBlur stdDeviation="25"/>
<feComposite in2="hardAlpha" operator="out"/>
<feColorMatrix type="matrix" values="0 0 0 0 0.113438 0 0 0 0 0.148981 0 0 0 0 0.275 0 0 0 0.25 0"/>
<feBlend mode="normal" in2="effect1_backgroundBlur_4_6501" result="effect2_dropShadow_4_6501"/>
<feColorMatrix in="SourceAlpha" type="matrix" values="0 0 0 0 0 0 0 0 0 0 0 0 0 0 0 0 0 0 127 0" result="hardAlpha"/>
<feOffset dy="-7"/>
<feGaussianBlur stdDeviation="20.5"/>
<feComposite in2="hardAlpha" operator="out"/>
<feColorMatrix type="matrix" values="0 0 0 0 0.1375 0 0 0 0 0.74125 0 0 0 0 1 0 0 0 0.3 0"/>
<feBlend mode="normal" in2="effect2_dropShadow_4_6501" result="effect3_dropShadow_4_6501"/>
<feBlend mode="normal" in="SourceGraphic" in2="effect3_dropShadow_4_6501" result="shape"/>
</filter>
<filter id="filter5_bdd_4_6501" x="27.4136" y="143.699" width="154.692" height="131.731" filterUnits="userSpaceOnUse" color-interpolation-filters="sRGB">
<feFlood flood-opacity="0" result="BackgroundImageFix"/>
<feGaussianBlur in="BackgroundImageFix" stdDeviation="7"/>
<feComposite in2="SourceAlpha" operator="in" result="effect1_backgroundBlur_4_6501"/>
<feColorMatrix in="SourceAlpha" type="matrix" values="0 0 0 0 0 0 0 0 0 0 0 0 0 0 0 0 0 0 127 0" result="hardAlpha"/>
<feOffset dx="-21" dy="15"/>
<feGaussianBlur stdDeviation="25"/>
<feComposite in2="hardAlpha" operator="out"/>
<feColorMatrix type="matrix" values="0 0 0 0 0.113438 0 0 0 0 0.148981 0 0 0 0 0.275 0 0 0 0.25 0"/>
<feBlend mode="normal" in2="effect1_backgroundBlur_4_6501" result="effect2_dropShadow_4_6501"/>
<feColorMatrix in="SourceAlpha" type="matrix" values="0 0 0 0 0 0 0 0 0 0 0 0 0 0 0 0 0 0 127 0" result="hardAlpha"/>
<feOffset dy="-7"/>
<feGaussianBlur stdDeviation="20.5"/>
<feComposite in2="hardAlpha" operator="out"/>
<feColorMatrix type="matrix" values="0 0 0 0 0.1375 0 0 0 0 0.74125 0 0 0 0 1 0 0 0 0.3 0"/>
<feBlend mode="normal" in2="effect2_dropShadow_4_6501" result="effect3_dropShadow_4_6501"/>
<feBlend mode="normal" in="SourceGraphic" in2="effect3_dropShadow_4_6501" result="shape"/>
</filter>
<linearGradient id="paint0_linear_4_6501" x1="118.652" y1="65.855" x2="118.652" y2="129.771" gradientUnits="userSpaceOnUse">
<stop stop-color="white"/>
<stop offset="1" stop-color="white" stop-opacity="0"/>
</linearGradient>
<linearGradient id="paint1_linear_4_6501" x1="114.606" y1="64.0796" x2="114.606" y2="123.102" gradientUnits="userSpaceOnUse">
<stop stop-color="white"/>
<stop offset="1" stop-color="white" stop-opacity="0"/>
</linearGradient>
<linearGradient id="paint2_linear_4_6501" x1="151.53" y1="55.7096" x2="151.53" y2="174.918" gradientUnits="userSpaceOnUse">
<stop stop-color="white"/>
<stop offset="1" stop-color="white" stop-opacity="0"/>
</linearGradient>
<linearGradient id="paint3_linear_4_6501" x1="151.53" y1="81.834" x2="151.53" y2="163.504" gradientUnits="userSpaceOnUse">
<stop stop-color="white"/>
<stop offset="1" stop-color="white" stop-opacity="0"/>
</linearGradient>
<linearGradient id="paint4_linear_4_6501" x1="206.917" y1="132.054" x2="194.202" y2="187.077" gradientUnits="userSpaceOnUse">
<stop stop-color="#FF4D00"/>
<stop offset="1" stop-color="#FFB800"/>
</linearGradient>
<linearGradient id="paint5_linear_4_6501" x1="189.972" y1="186.332" x2="213.095" y2="136.924" gradientUnits="userSpaceOnUse">
<stop stop-color="white"/>
<stop offset="1" stop-color="white" stop-opacity="0"/>
</linearGradient>
<linearGradient id="paint6_linear_4_6501" x1="205.652" y1="83.6094" x2="205.652" y2="147.525" gradientUnits="userSpaceOnUse">
<stop stop-color="white"/>
<stop offset="1" stop-color="white" stop-opacity="0"/>
</linearGradient>
<linearGradient id="paint7_linear_4_6501" x1="201.606" y1="81.834" x2="201.606" y2="140.856" gradientUnits="userSpaceOnUse">
<stop stop-color="white"/>
<stop offset="1" stop-color="white" stop-opacity="0"/>
</linearGradient>
<linearGradient id="paint8_linear_4_6501" x1="99.3836" y1="162.787" x2="91.9873" y2="187.032" gradientUnits="userSpaceOnUse">
<stop stop-color="#138EFF"/>
<stop offset="1" stop-color="#00E0FF"/>
</linearGradient>
<linearGradient id="paint9_linear_4_6501" x1="99.3836" y1="162.787" x2="91.9873" y2="187.032" gradientUnits="userSpaceOnUse">
<stop stop-color="white"/>
<stop offset="1" stop-color="white" stop-opacity="0"/>
</linearGradient>
<linearGradient id="paint10_linear_4_6501" x1="128.472" y1="162.787" x2="121.076" y2="187.032" gradientUnits="userSpaceOnUse">
<stop stop-color="#138EFF"/>
<stop offset="1" stop-color="#00E0FF"/>
</linearGradient>
<linearGradient id="paint11_linear_4_6501" x1="128.472" y1="162.787" x2="121.076" y2="187.032" gradientUnits="userSpaceOnUse">
<stop stop-color="white"/>
<stop offset="1" stop-color="white" stop-opacity="0"/>
</linearGradient>
<linearGradient id="paint12_linear_4_6501" x1="157.56" y1="162.787" x2="150.164" y2="187.032" gradientUnits="userSpaceOnUse">
<stop stop-color="#138EFF"/>
<stop offset="1" stop-color="#00E0FF"/>
</linearGradient>
<linearGradient id="paint13_linear_4_6501" x1="157.56" y1="162.787" x2="150.164" y2="187.032" gradientUnits="userSpaceOnUse">
<stop stop-color="white"/>
<stop offset="1" stop-color="white" stop-opacity="0"/>
</linearGradient>
<linearGradient id="paint14_linear_4_6501" x1="110.512" y1="185.878" x2="103.115" y2="210.123" gradientUnits="userSpaceOnUse">
<stop stop-color="#138EFF"/>
<stop offset="1" stop-color="#00E0FF"/>
</linearGradient>
<linearGradient id="paint15_linear_4_6501" x1="110.512" y1="185.878" x2="103.115" y2="210.123" gradientUnits="userSpaceOnUse">
<stop stop-color="white"/>
<stop offset="1" stop-color="white" stop-opacity="0"/>
</linearGradient>
<linearGradient id="paint16_linear_4_6501" x1="139.849" y1="185.878" x2="132.453" y2="210.123" gradientUnits="userSpaceOnUse">
<stop stop-color="#138EFF"/>
<stop offset="1" stop-color="#00E0FF"/>
</linearGradient>
<linearGradient id="paint17_linear_4_6501" x1="139.849" y1="185.878" x2="132.453" y2="210.123" gradientUnits="userSpaceOnUse">
<stop stop-color="white"/>
<stop offset="1" stop-color="white" stop-opacity="0"/>
</linearGradient>
</defs>
</svg>
